<svg width="60" height="60" viewBox="0 0 60 60" fill="none" xmlns="http://www.w3.org/2000/svg">
<g id="Group 89" clip-path="url(#clip0_519_5749)">
<path id="Vector" d="M27.3084 1.06016C24.6067 1.23014 21.3503 1.94582 18.7649 2.92989C12.941 5.15747 8.16381 9.01321 4.70167 14.2914C2.48304 17.6551 1.04273 21.5288 0.318095 26.0108C0.139173 27.1648 0.112335 27.6032 0.112335 30.0365C0.112335 33.0245 0.157066 33.445 0.73856 36.3435C1.12324 38.258 1.4453 39.3046 1.6779 39.4299C1.7942 39.4925 4.54959 39.5194 9.81885 39.5194H17.7987L17.3156 39.0452C16.6178 38.3564 16.0811 37.6944 15.4817 36.7908C14.4708 35.261 14.0235 34.3217 13.3883 32.4251C12.8605 30.8595 12.7352 29.9113 12.7352 27.5316C12.7442 25.143 12.8873 24.1679 13.5315 22.2176C14.2829 19.9364 15.9469 17.2257 17.4588 15.7764C19.2301 14.1035 20.3305 13.3342 22.3702 12.368C23.8194 11.6792 24.9645 11.3571 27.1832 10.9903C27.9078 10.874 30.1175 10.865 31.3341 10.9814C32.3093 11.0708 32.7208 11.1603 33.9106 11.4913C34.34 11.6165 34.7516 11.697 34.8142 11.6702C34.8678 11.6434 34.9931 11.3034 35.0736 10.9098C35.4672 9.11164 36.7913 7.60869 38.5447 6.98246C39.1083 6.7767 39.3588 6.74092 40.1907 6.74092C41.3806 6.74092 42.1499 6.94668 42.9909 7.50134C44.127 8.24389 44.7801 9.07587 45.2453 10.3373C45.4779 10.9814 45.5137 11.1961 45.5137 11.9833C45.5137 12.7885 45.4779 12.9943 45.1916 13.8352C45.0216 14.354 44.5296 15.4634 44.1181 16.2864C43.7066 17.1184 43.4203 17.7625 43.474 17.7267C43.5545 17.673 43.5545 17.6999 43.474 17.8072C43.2861 18.0309 43.4203 18.6392 43.8139 19.3012C44.7175 20.8579 45.3258 22.4323 45.7105 24.1858C45.8984 25.0715 45.9163 25.3756 45.9163 27.5316C45.9163 29.7682 45.8984 29.9649 45.6657 31.0206C45.1827 33.2571 44.1181 35.5921 42.7494 37.417C42.3915 37.9001 41.7295 38.7053 41.2822 39.2062C41.1212 39.3852 41.1212 39.3852 41.64 39.4568C41.9263 39.4925 45.4064 39.5104 49.3784 39.5014C55.7122 39.4746 56.6157 39.4568 56.741 39.3404C56.9289 39.1436 57.5641 36.6477 57.8682 34.8674C58.0292 33.9638 58.1903 32.3267 58.2082 31.4768C58.2171 31.0116 58.2439 30.6001 58.2619 30.5643C58.3334 30.457 58.1366 27.2722 57.9935 26.1628C57.4477 21.994 55.8196 17.6462 53.4488 14.0678C51.2571 10.7577 48.2333 7.7608 44.8874 5.58688C40.9154 3.01041 35.8161 1.37328 30.7974 1.05122C29.2229 0.952809 28.9992 0.952809 27.3084 1.06016Z" fill="#279977"/>
<path id="Vector_2" d="M38.974 8.31527C37.5963 8.79835 36.5765 9.99715 36.2813 11.4733C36.1381 12.18 36.2634 12.7167 36.9164 14.2823C37.6858 16.1073 39.976 20.1957 40.2354 20.1957C40.3517 20.1957 40.799 19.5247 41.3447 18.5228C42.8835 15.7048 43.1697 15.1412 43.626 14.0766C44.118 12.9136 44.118 12.8957 44.127 11.9653C44.127 11.0886 44.109 10.9812 43.8407 10.4176C43.456 9.61249 42.7135 8.86995 41.8994 8.48529C41.3715 8.23475 41.1748 8.12389 40.4367 8.09046C39.7031 8.0547 39.475 8.13639 38.974 8.31527ZM41.4521 9.61249C42.302 10.0598 42.8656 10.9991 42.8656 12.0189C42.8745 13.9155 41.0585 15.2127 39.314 14.5597C37.9989 14.0676 37.2921 12.6899 37.641 11.2585C37.82 10.4982 38.4641 9.77352 39.2245 9.49615C39.7344 9.30828 40.9869 9.37987 41.4521 9.61249Z" fill="#D60000"/>
<path id="Vector_3" d="M39.5197 10.8202C39.0098 11.1691 38.8488 11.4644 38.8488 12.0459C38.8488 12.6989 39.144 13.1283 39.7434 13.352C40.0833 13.4862 40.1996 13.4951 40.5396 13.3967C41.0406 13.2625 41.4432 12.8421 41.5863 12.3143C41.6847 11.9296 41.6757 11.8669 41.4789 11.4644C41.3626 11.2228 41.13 10.9366 40.9601 10.8292C40.5485 10.5519 39.9223 10.5519 39.5197 10.8202Z" fill="#25957F"/>
<path id="Vector_4" d="M27.8003 12.4126C27.6661 12.4573 27.8808 12.4752 28.3639 12.4573C28.7933 12.4484 29.1779 12.4126 29.2048 12.3768C29.2853 12.2962 28.0686 12.3321 27.8003 12.4126Z" fill="#25957F"/>
<path id="Vector_5" d="M31.0477 12.4036C31.012 12.4304 30.9225 12.5646 30.8509 12.6988C30.6004 13.1908 30.171 13.6023 29.6879 13.826C29.2496 14.0228 29.0528 14.0586 28.1581 14.0676C27.5945 14.0676 27.0757 14.1033 27.022 14.1391C26.9594 14.1749 26.7625 14.4791 26.5836 14.81C26.1363 15.6152 25.9932 15.7584 25.3401 16.0357C24.7586 16.2861 24.5797 16.5009 24.034 17.6281C23.8014 18.1111 23.4704 18.3974 22.8531 18.6301C22.4237 18.7911 21.8154 18.7911 20.2408 18.6211C19.883 18.5853 19.7309 18.6122 19.4894 18.7643C19.0242 19.0595 19.2389 19.1578 20.4287 19.2205C21.3234 19.2742 21.5201 19.3099 21.9675 19.5336C22.5489 19.8378 22.7905 20.1509 23.0588 20.965C23.1662 21.2781 23.3094 21.6001 23.3899 21.6717C23.6046 21.8864 24.0161 21.8238 24.7944 21.4659C25.4475 21.1618 25.5906 21.1349 26.2794 21.1349C26.9415 21.1349 27.0936 21.1618 27.4425 21.3765C27.6661 21.5018 28.0687 21.8507 28.3371 22.128C29.4553 23.3178 29.5805 23.4341 29.6879 23.3625C29.7506 23.3268 29.7684 23.3357 29.7416 23.3894C29.6521 23.5325 30.0547 23.6667 30.9046 23.783C31.7813 23.8904 32.4254 24.1319 32.7206 24.445C32.837 24.5702 32.9622 24.6418 33.0158 24.606C33.0695 24.5792 33.0785 24.5882 33.0517 24.6418C33.0248 24.6865 33.0874 24.8655 33.2037 25.0354C33.4989 25.4738 33.651 26.1984 33.5884 26.9141C33.5437 27.3883 33.4632 27.6566 33.2127 28.104C32.9264 28.6228 32.8906 28.757 32.8459 29.5532C32.7833 30.7073 32.6223 31.1188 32.005 31.7808C31.325 32.5054 31.2356 32.6754 31.1551 33.3463C31.0656 34.1426 30.9404 34.3394 30.1889 34.894C29.0617 35.7349 27.9882 37.0589 27.9792 37.6225C27.9792 37.6941 28.1492 38.1235 28.346 38.5798C28.7039 39.376 28.7396 39.4118 29.0438 39.4655C29.2227 39.4923 31.4324 39.5191 33.9552 39.5191C38.0167 39.5191 38.5893 39.5012 38.8576 39.376C39.2691 39.1792 40.3158 38.1415 41.1478 37.1037C41.9083 36.1554 42.5613 35.1713 42.5613 34.9835C42.5613 34.9119 42.3109 34.5898 41.9977 34.2588C41.5325 33.7668 41.3715 33.5163 41.1389 32.899C40.7632 31.9239 40.6826 31.4587 40.6826 30.3852C40.6826 29.3654 40.4679 28.6317 40.0922 28.3813C39.5644 28.0324 39.3855 27.3077 39.627 26.431C39.6807 26.2163 39.6986 25.939 39.6628 25.8048C39.5912 25.5185 39.0187 24.8475 38.8397 24.8475C38.7682 24.8475 38.4551 25.0265 38.133 25.2412C37.7573 25.5007 37.4173 25.6617 37.1489 25.6974C36.6569 25.778 35.6371 25.6795 35.2613 25.5185C34.8587 25.3485 34.2772 24.8029 33.8747 24.2124C33.6868 23.935 33.3916 23.5593 33.2305 23.3804C31.9781 22.0564 31.8708 20.5266 32.8727 18.5137C33.0963 18.0575 33.4184 17.5386 33.5705 17.3508C33.8478 17.0376 33.8926 17.0198 34.3846 17.0198C34.7872 17.0198 35.0287 17.0824 35.3776 17.2613C35.8965 17.5386 36.3528 17.5834 36.6122 17.3865C36.7732 17.2702 36.7643 17.2255 36.3528 16.3846C36.1112 15.8926 35.7444 15.0516 35.5386 14.5148C35.1092 13.3966 34.9929 13.2893 33.8478 12.9404C33.0517 12.6988 31.1461 12.332 31.0477 12.4036Z" fill="#279977"/>
<path id="Vector_6" d="M26.0558 12.7258C26.0111 12.7347 25.6442 12.8242 25.2507 12.9047C24.5886 13.0479 24.2397 13.1821 22.5847 13.9245C21.5022 14.4076 19.9904 15.4902 18.8989 16.5637C17.3155 18.1203 16.1257 19.6858 16.1883 20.1242C16.2151 20.312 16.2688 20.33 16.8324 20.3568C17.8701 20.4016 18.5411 20.813 19.2299 21.8418C19.7846 22.6649 19.9098 22.7812 20.5629 22.969C21.377 23.2106 21.6275 23.4253 21.6275 23.8637C21.6275 24.463 21.2338 24.6778 20.5181 24.463C20.2677 24.3825 19.9009 24.2752 19.6951 24.2304C19.1584 24.0873 18.7468 23.7205 18.2637 22.9422C17.4944 21.7166 16.8592 21.4751 16.1435 22.137C15.9199 22.3428 15.5799 22.5933 15.3831 22.6917C14.8643 22.9512 14.6674 23.2911 14.4706 24.2394C14.086 26.127 14.0323 27.7821 14.2917 29.5892C14.4795 30.8863 14.9269 32.5234 15.4099 33.6596C15.7052 34.3484 16.7339 36.084 17.2707 36.7818C17.9953 37.7391 19.4178 39.1972 19.7846 39.3762C20.044 39.5014 20.4913 39.5193 22.6742 39.5193H25.2685L25.1075 39.0451C25.018 38.7947 24.9464 38.4994 24.9375 38.41C24.9375 38.3116 24.8749 37.9806 24.7944 37.6675C24.6334 37.0144 24.6781 36.7192 24.9644 36.5223C25.2417 36.3435 25.7606 36.4866 25.9663 36.7997C26.0468 36.9339 26.181 37.4259 26.2526 37.9001C26.351 38.5352 26.4494 38.8394 26.6104 39.063C26.7714 39.2598 26.8162 39.2901 26.9056 39.313C26.9839 39.3572 26.9504 39.3572 27.0846 39.4243C27.2859 39.6255 27.3172 39.5104 27.1651 39.242C27.1114 39.1346 27.013 39.081 26.9504 39.1078C26.8788 39.1346 27.0108 39.1 26.9839 39.0552C26.9482 39.0016 26.7894 38.9825 26.8788 38.9825C27.013 38.9825 27.013 38.9646 26.9056 38.902C26.8341 38.8483 26.8185 38.7936 26.7827 38.8204C26.7469 38.8383 26.8117 38.8584 26.7491 38.7868C26.6507 38.6705 26.8251 38.7276 26.682 38.6862C26.7827 38.7868 26.7088 38.6873 26.6552 38.4726C26.5121 37.8911 26.5836 37.0681 26.8251 36.5671C27.183 35.8067 28.0776 34.7063 28.8648 34.0443C29.5895 33.4359 29.7595 33.1497 29.7684 32.5414C29.7773 32.1477 30.0905 31.602 30.5646 31.1458C31.2893 30.4659 31.3966 30.2422 31.4324 29.3476C31.4681 28.3457 31.5218 28.122 31.8439 27.5494C31.996 27.2811 32.0944 27.0038 32.0676 26.8964C32.0407 26.8069 32.0586 26.7443 32.1033 26.7801C32.2464 26.8606 32.1928 26.2433 32.0228 25.9302C31.7724 25.4292 31.5218 25.304 30.5378 25.2056C29.3748 25.0893 28.999 24.8745 27.854 23.7027C27.353 23.1927 26.8341 22.7186 26.6909 22.638C26.3689 22.4681 26.0468 22.5307 24.9912 22.9333C24.4097 23.1569 24.0608 23.2374 23.6672 23.2374C22.7725 23.2374 22.37 22.9064 21.8243 21.7166C21.6275 21.2961 21.4038 20.9025 21.3323 20.8399C21.2428 20.7683 20.876 20.7325 20.1872 20.7415C18.8363 20.7504 18.3979 20.6341 18.058 20.1779C17.6107 19.5696 17.5838 18.6928 18.0133 18.1203C18.1295 17.9593 18.2548 17.7535 18.2816 17.673C18.3085 17.5835 18.5143 17.4314 18.729 17.333C19.0957 17.1541 19.2389 17.1451 20.7687 17.172C22.701 17.2078 22.5847 17.2525 23.1483 16.1343C23.6045 15.2396 23.7746 15.0518 24.3023 14.8639C24.8212 14.6671 25.1343 14.3808 25.528 13.7367C25.6979 13.4594 25.9753 13.1105 26.1542 12.9584C26.4405 12.699 26.4047 12.6095 26.0558 12.7258ZM23.211 25.1251C24.2666 25.2771 25.0986 25.6976 25.8232 26.4402C26.8162 27.46 27.174 28.3188 27.174 29.7413C27.174 30.8058 26.8788 31.7273 25.9126 33.6596C25.0628 35.3594 24.7765 35.8514 23.5151 37.7569C22.9694 38.5889 22.8441 38.7052 22.5042 38.7142C22.2 38.7142 22.039 38.562 21.4754 37.7122C19.8293 35.2789 18.2996 32.2909 17.9148 30.7969C17.5391 29.3297 17.9953 27.6479 19.0599 26.5385C19.8025 25.7602 20.7508 25.2861 21.8869 25.1251C22.1643 25.0803 22.4192 25.0748 22.455 25.0658C22.4908 25.0658 22.8262 25.0714 23.211 25.1251Z" fill="#279977"/>
<path id="Vector_7" d="M21.7617 26.4938C20.7328 26.7532 19.9456 27.3705 19.4714 28.3098C19.1941 28.8556 19.1673 28.9808 19.1673 29.6697C19.1673 30.3854 19.203 30.5196 19.6056 31.5126C20.1335 32.8276 22.0658 36.3881 22.3968 36.6655C22.5668 36.8086 22.6652 36.6834 23.2288 35.5741C23.4703 35.0999 23.8371 34.4558 24.0339 34.1427C24.6065 33.2391 25.5459 31.2979 25.6979 30.7074C26.0289 29.3834 25.7874 28.3814 24.9017 27.4958C24.3202 26.8964 23.7655 26.5922 23.0409 26.458C22.4863 26.3506 22.3253 26.3506 21.7617 26.4938ZM23.5508 27.6031C24.6423 28.122 25.179 29.3744 24.7944 30.5106C24.6065 31.0652 24.0161 31.7183 23.4614 31.9688C22.2447 32.5413 20.6702 31.8793 20.2497 30.6269C19.543 28.4888 21.547 26.6548 23.5508 27.6031Z" fill="#D60000"/>
<path id="Vector_8" d="M22.0212 28.6946C21.6633 28.8378 21.3592 29.3029 21.3592 29.7055C21.3592 30.7969 22.54 31.3069 23.3004 30.5464C24.1951 29.6607 23.2021 28.2115 22.0212 28.6946Z" fill="#25957F"/>
<path id="Vector_9" d="M34.331 18.8449C33.7584 19.65 33.499 20.7593 33.7047 21.4929C33.7942 21.806 33.9373 22.0028 34.2773 22.298C34.5277 22.5217 34.8766 22.9511 35.0556 23.2642C35.2345 23.5684 35.4223 23.81 35.485 23.7921C35.5387 23.7831 35.5834 23.8189 35.5834 23.8726C35.5834 23.9173 35.7712 24.0425 35.9949 24.1409C36.3527 24.302 36.4601 24.3109 36.8179 24.2215C37.0416 24.1678 37.3726 24.0068 37.5426 23.8726C38.4193 23.1748 38.8039 23.0943 39.5017 23.4521C40.0653 23.7384 40.3427 24.0515 40.7721 24.8835C41.13 25.5634 41.1389 25.6081 41.112 26.3596C41.0852 27.1111 41.0942 27.1468 41.3626 27.4868C41.944 28.2293 42.0514 28.5513 42.123 29.8575C42.2214 31.6736 42.3734 32.2908 42.9013 33.0155L43.2054 33.4449L43.4291 33.1228C43.7422 32.6576 43.8854 32.2103 44.2253 30.5732C44.5026 29.2313 44.5295 28.9629 44.5295 27.5762C44.5295 25.4739 44.3237 24.2572 43.617 22.2533C43.0623 20.6699 42.5971 19.8379 42.2572 19.8379C42.1409 19.8379 41.5862 20.6162 41.1031 21.466C40.8258 21.9402 40.4769 22.2533 40.2085 22.2533C39.9401 22.2533 39.466 21.6808 38.6787 20.4015C37.6231 18.6928 37.5962 18.657 37.301 18.7822C36.9521 18.9254 35.6013 18.8896 35.0466 18.7285C34.7782 18.648 34.5546 18.5854 34.5457 18.5854C34.5277 18.5854 34.4383 18.7017 34.331 18.8449Z" fill="#279977"/>
<path id="Vector_10" d="M22.3342 42.337C20.9476 42.7842 20.1782 43.983 20.3124 45.4949C20.4466 46.9353 21.3859 47.8657 22.9247 48.1072C23.6672 48.2235 24.4455 48.1519 25.0986 47.9104C25.7605 47.6599 26.5836 46.8905 26.7625 46.3359C27.192 45.0387 26.9414 43.8578 26.0379 42.99C25.4653 42.4354 24.9554 42.2654 23.7745 42.2296C23.041 42.2117 22.6295 42.2475 22.3342 42.337ZM24.4008 43.6162C24.857 43.8399 25.1164 44.4035 25.1164 45.155C25.1164 46.3359 24.5886 46.8905 23.533 46.8368C22.5936 46.7831 22.1642 46.2822 22.1464 45.2087C22.1285 44.0904 22.6741 43.4552 23.6403 43.4552C23.8909 43.4552 24.2308 43.5268 24.4008 43.6162Z" fill="#D80003"/>
<path id="Vector_11" d="M29.3301 42.3374C28.4802 42.5789 28.1224 42.892 27.8987 43.572C27.675 44.2429 27.9703 44.9228 28.6234 45.2538C28.8291 45.3611 29.5627 45.558 30.2515 45.7011C31.6203 45.9874 31.9245 46.1484 31.7455 46.4794C31.6203 46.712 31.1998 46.8551 30.6094 46.8551C30.0011 46.8551 29.6879 46.7389 29.4106 46.3989C29.2227 46.1753 29.0975 46.1216 28.6771 46.0768C27.7735 45.9874 27.5409 46.1484 27.7109 46.7567C27.8182 47.1683 28.2476 47.5887 28.8291 47.8571C29.2317 48.0449 29.4106 48.0629 30.6183 48.0629C31.9602 48.0629 31.9692 48.0629 32.5596 47.7676C33.4363 47.3382 33.7584 46.7209 33.5348 45.8979C33.4274 45.5132 32.9801 45.0391 32.5507 44.8691C32.4254 44.8244 31.7992 44.6812 31.173 44.565C30.5378 44.4486 29.9563 44.3144 29.8669 44.2608C29.5896 44.1176 29.5716 43.9119 29.8132 43.6703C29.9921 43.4914 30.1173 43.4556 30.5915 43.4556C31.164 43.4556 31.4235 43.563 31.7366 43.9119C31.8618 44.055 32.5954 44.1445 33.1948 44.0908C33.5258 44.064 33.329 43.2677 32.8817 42.8652C32.3807 42.4 31.9245 42.2658 30.842 42.23C30.1263 42.2121 29.6701 42.2479 29.3301 42.3374Z" fill="#D80003"/>
<path id="Vector_12" d="M55.4169 42.3014C54.2897 42.5698 53.6455 43.3749 53.8423 44.2606C54.0302 45.1105 54.4685 45.3609 56.3294 45.7277C57.5728 45.9782 57.7696 46.0498 57.7696 46.3182C57.7696 46.6223 57.4297 46.8013 56.7766 46.837C55.9805 46.8818 55.8015 46.837 55.4169 46.4435C55.1395 46.1572 55.0501 46.1124 54.558 46.0856C53.8692 46.0319 53.6545 46.1392 53.6545 46.524C53.6545 46.9981 54.0213 47.4275 54.7012 47.7674C55.3319 48.0457 55.2983 48.0793 56.6738 48.1128C57.9821 48.0793 58.1163 48.0122 58.6195 47.7773C59.2457 47.4642 59.4784 47.0876 59.532 46.5508C59.5946 45.9961 59.5141 45.7457 59.1474 45.3341C58.7806 44.9226 58.3959 44.7795 57.0092 44.5289C56.4725 44.4306 55.9357 44.3053 55.8284 44.2427C55.3184 43.9833 55.8104 43.4554 56.5798 43.4554C57.0898 43.4554 57.4387 43.5896 57.707 43.8848C57.8233 44.0101 58.038 44.0817 58.4406 44.1264C59.3621 44.2248 59.5678 43.9922 59.2011 43.2675C58.9774 42.8381 58.378 42.4266 57.7607 42.3014C57.2329 42.1851 55.9 42.1851 55.4169 42.3014Z" fill="#D80003"/>
<path id="Vector_13" d="M2.64393 42.3998C2.44712 42.5518 0.139025 47.7495 0.192702 47.9016C0.228486 47.9822 0.443192 48.0179 0.953118 48.0179C1.62407 48.0179 1.67775 48 1.87456 47.7585C1.99981 47.6243 2.14295 47.3738 2.21451 47.2217L2.33082 46.9355L3.628 46.9623L4.91623 46.9891L5.07726 47.3827C5.15778 47.5974 5.30091 47.8301 5.39038 47.8927C5.59613 48.0448 7.0096 48.0627 7.0991 47.9195C7.12594 47.8658 6.97383 47.4096 6.75018 46.9176C6.51758 46.4166 5.98976 45.2178 5.56929 44.2606C5.14883 43.3033 4.73731 42.4624 4.65679 42.3998C4.55839 42.3371 4.20054 42.2924 3.64589 42.2924C3.09123 42.2924 2.73339 42.3282 2.64393 42.3998ZM3.98584 44.7437C4.14687 45.1462 4.27212 45.5309 4.27212 45.5936C4.27212 45.6562 4.04847 45.6919 3.60116 45.6919C3.22542 45.6919 2.9302 45.6562 2.9302 45.6025C2.9302 45.4951 3.33278 44.4305 3.46697 44.1801C3.52064 44.0727 3.59222 43.9922 3.63694 43.9922C3.67273 43.9922 3.83376 44.3322 3.98584 44.7437Z" fill="#D80003"/>
<path id="Vector_14" d="M7.9579 42.3643C7.87738 42.4269 7.85054 43.0531 7.86839 45.2092L7.89523 47.9735L8.9956 48.0004C10.7848 48.0361 12.5025 47.9019 12.9677 47.6783C13.415 47.4546 13.8444 46.8732 13.8444 46.4795C13.8444 45.907 13.3702 45.2897 12.7977 45.1197C12.6188 45.0571 12.6277 45.0392 13.0035 44.6634C13.3524 44.3145 13.3971 44.2162 13.3971 43.8762C13.3971 43.1158 12.7888 42.5701 11.7421 42.3912C11.1069 42.2748 8.12785 42.257 7.9579 42.3643ZM11.411 43.6883C11.6437 43.8494 11.6616 44.0998 11.4647 44.2967C11.3574 44.4041 11.1248 44.4398 10.4359 44.4398H9.55028V44.0462C9.55028 43.8136 9.59503 43.6347 9.66655 43.6078C9.72023 43.581 10.096 43.5542 10.4896 43.5542C11.0085 43.5452 11.2679 43.581 11.411 43.6883ZM11.8047 45.8443C12.0373 46.0501 12.0105 46.4616 11.751 46.6316C11.59 46.739 11.3305 46.7658 10.5701 46.7479L9.59503 46.7211L9.56819 46.3274C9.52344 45.6923 9.51451 45.6923 10.6327 45.6923C11.4469 45.6923 11.6705 45.7191 11.8047 45.8443Z" fill="#D80003"/>
<path id="Vector_15" d="M14.2739 42.3907C14.1486 42.4533 14.1129 42.5965 14.1129 42.9454C14.1129 43.2048 14.1486 43.4553 14.1845 43.5179C14.2291 43.5895 14.578 43.6342 15.1864 43.6521L16.1257 43.679L16.1705 45.826L16.2152 47.9731H17.0203H17.8255L17.8702 45.826L17.915 43.679L18.8722 43.6521C19.8205 43.6253 19.8383 43.6253 19.892 43.4017C19.9725 43.0885 19.8742 42.4623 19.731 42.3728C19.561 42.2565 14.4618 42.2744 14.2739 42.3907Z" fill="#D80003"/>
<path id="Vector_16" d="M36.4065 42.4445C36.1739 42.6592 33.9374 47.7048 34 47.8837C34.0448 47.9911 34.2147 48.0179 34.7604 48.0179C35.5477 48.0179 35.664 47.9463 35.9681 47.2754L36.1202 46.9444H37.3996H38.6878L38.8398 47.347C39.0635 47.9195 39.2424 48.0179 40.1191 48.0179C40.5217 48.0179 40.8706 47.9822 40.8975 47.9374C40.9601 47.848 38.6699 42.6682 38.4731 42.4445C38.3567 42.3193 38.1779 42.2924 37.4622 42.2924C36.7554 42.2924 36.5497 42.3193 36.4065 42.4445ZM37.8021 44.8152C37.9632 45.1999 38.0884 45.5488 38.0884 45.6025C38.0884 45.6562 37.8021 45.6919 37.3637 45.6919C36.5317 45.6919 36.5586 45.7724 37.0685 44.6452C37.2385 44.2695 37.4085 44.0011 37.4532 44.0459C37.489 44.0906 37.65 44.4395 37.8021 44.8152Z" fill="#D80003"/>
<path id="Vector_17" d="M41.7204 42.4355C41.5952 42.5518 41.5773 42.9275 41.5773 45.1909C41.5773 47.1054 41.6042 47.83 41.6847 47.9105C41.8099 48.0358 46.3724 48.0626 46.5603 47.9463C46.614 47.9105 46.6945 47.669 46.7303 47.4095C46.8287 46.676 46.8287 46.676 44.9679 46.676H43.3755L43.3486 44.6094C43.3218 42.686 43.3129 42.5339 43.1518 42.4176C42.9013 42.2387 41.8994 42.2477 41.7204 42.4355Z" fill="#D80003"/>
<path id="Vector_18" d="M47.6248 42.4356C47.4996 42.5518 47.4817 42.9276 47.4817 45.1999C47.4817 47.7138 47.4906 47.839 47.6517 47.9285C47.759 47.9822 48.752 48.0179 50.255 48.0179C51.7579 48.0179 52.7509 47.9822 52.8583 47.9285C52.9925 47.8569 53.0283 47.7406 53.0283 47.3917C53.0283 46.6313 53.1446 46.676 51.0959 46.676H49.2709V46.2287V45.7814H50.5592C52.0621 45.7814 52.1336 45.7546 52.1336 45.0746C52.1336 44.8421 52.0889 44.6095 52.0263 44.5469C51.9548 44.4753 51.5074 44.4395 50.5949 44.4395H49.2709V44.0369V43.6344L51.1317 43.6164L52.9835 43.5896L53.0104 43.0708C53.0283 42.7576 52.9925 42.4982 52.9299 42.4177C52.8493 42.3193 52.3663 42.2924 50.2908 42.2924C48.1079 42.2924 47.7412 42.3103 47.6248 42.4356Z" fill="#D80003"/>
<path id="Vector_19" d="M9.55028 51.695C12.8871 54.674 16.886 56.8837 21.0907 58.0735C24.1145 58.9323 25.7517 59.156 29.1422 59.147C31.9423 59.147 32.4612 59.1023 34.9572 58.6102C39.7522 57.662 44.4221 55.3896 48.1437 52.1959C48.4836 51.9097 48.8415 51.6234 48.9309 51.5697C49.0204 51.5071 49.0919 51.4355 49.0919 51.3997C49.0919 51.355 40.1011 51.3281 29.1243 51.3281L9.14771 51.3371L9.55028 51.695Z" fill="#279977"/>
<path id="Vector 1" d="M26.6799 38.6575C26.6862 38.675 26.691 38.6953 26.7004 38.7117C26.7028 38.7159 26.7054 38.7199 26.7074 38.7244C26.7113 38.7329 26.716 38.7411 26.7204 38.7494C26.7289 38.7653 26.7376 38.7811 26.7474 38.7963C26.7616 38.8184 26.7751 38.8408 26.7898 38.8625C26.8083 38.8899 26.8258 38.9183 26.8486 38.9423C26.862 38.9563 26.8762 38.9698 26.8901 38.9833C26.9052 38.9979 26.9215 39.0126 26.9343 39.0294C26.9587 39.0615 26.9819 39.0949 27.0056 39.1275C27.0217 39.1496 27.0287 39.1772 27.0414 39.2012C27.0484 39.2142 27.0563 39.2272 27.0618 39.2409C27.0642 39.2467 27.07 39.2561 27.0685 39.2623" stroke="#25957F" stroke-width="0.49068" stroke-linecap="round"/>
<path id="Vector 2" d="M27.0963 39.2157C27.0808 39.187 27.0629 39.1587 27.0423 39.1334C27.0361 39.1257 27.031 39.1168 27.0255 39.1085C27.0217 39.1029 27.0165 39.0981 27.012 39.0931C27.0057 39.0861 27.0004 39.0783 26.9948 39.0707C26.9874 39.061 26.9816 39.0502 26.9743 39.0404C26.97 39.0348 26.9672 39.0281 26.9631 39.0224C26.9581 39.0153 26.9531 39.0081 26.9489 39.0006C26.9319 38.9704 26.912 38.9432 26.8861 38.9197C26.8565 38.8929 26.8292 38.8635 26.7994 38.8367C26.7863 38.825 26.7724 38.8143 26.7599 38.8019C26.7463 38.7884 26.7343 38.774 26.7213 38.76C26.7099 38.7479 26.7005 38.7332 26.6911 38.7195C26.681 38.7045 26.6735 38.6867 26.6663 38.6701C26.6626 38.6616 26.6584 38.6533 26.6546 38.6448C26.6501 38.6344 26.6469 38.6235 26.6421 38.6132C26.6377 38.6041 26.6335 38.5947 26.6299 38.5852C26.6283 38.5809 26.6253 38.577 26.6238 38.5726" stroke="#25957F" stroke-width="0.49068" stroke-linecap="round"/>
<path id="Vector 3" d="M26.651 38.5655C26.6634 38.5983 26.6788 38.6298 26.6897 38.6632C26.6927 38.6726 26.6964 38.6816 26.6989 38.6911C26.7003 38.696 26.7031 38.7005 26.7045 38.7055C26.7061 38.711 26.7084 38.7167 26.7106 38.7221C26.7156 38.7341 26.7193 38.7464 26.7246 38.7584C26.7267 38.7632 26.7283 38.7678 26.7307 38.7726C26.7344 38.78 26.7386 38.7869 26.7423 38.7943C26.7499 38.8093 26.7603 38.8228 26.7686 38.8373C26.7734 38.8458 26.7781 38.8544 26.7836 38.8625C26.7855 38.8653 26.7861 38.8678 26.7861 38.8711" stroke="#25957F" stroke-width="0.49068" stroke-linecap="round"/>
<path id="Vector 4" d="M27.0405 39.1823C27.0296 39.1572 27.023 39.1303 27.0121 39.1051C27.0057 39.0901 26.9994 39.0749 26.9926 39.06C26.986 39.0455 26.9767 39.0315 26.9713 39.0166C26.9679 39.007 26.9609 38.9986 26.9575 38.9893C26.9559 38.9847 26.9515 38.9803 26.9487 38.9764C26.9447 38.9707 26.9412 38.9646 26.937 38.9591C26.929 38.9484 26.9211 38.9372 26.912 38.9274C26.9023 38.9169 26.8936 38.9044 26.8849 38.893C26.8754 38.8806 26.8645 38.8688 26.853 38.8584C26.8401 38.8467 26.8282 38.8338 26.8148 38.8227C26.8014 38.8117 26.7878 38.8009 26.7744 38.7899C26.7486 38.7687 26.7299 38.741 26.7096 38.7149C26.6996 38.702 26.6899 38.6892 26.6807 38.6757C26.6713 38.662 26.665 38.6472 26.6566 38.6329C26.6523 38.6255 26.6497 38.6171 26.6461 38.6093C26.6413 38.5987 26.6364 38.5881 26.6319 38.5774C26.6292 38.5709 26.627 38.5643 26.6231 38.5584C26.6219 38.5566 26.6221 38.5542 26.6211 38.5523" stroke="#25957F" stroke-width="0.49068" stroke-linecap="round"/>
<path id="Vector 5" d="M27.2161 39.4826C27.211 39.4826 27.2067 39.4819 27.2018 39.4814C27.1997 39.4812 27.1953 39.4764 27.1934 39.4752C27.1905 39.4734 27.1848 39.4719 27.1827 39.4692C27.1796 39.4653 27.176 39.4631 27.1722 39.4599C27.1652 39.4542 27.1595 39.4467 27.1516 39.4424C27.1394 39.4358 27.1264 39.4251 27.1159 39.4159C27.0935 39.3963 27.0653 39.3834 27.0414 39.3657C27.0326 39.3592 27.0232 39.3519 27.0134 39.3473C27.0033 39.3426 26.9946 39.3337 26.9846 39.3287" stroke="#25957F" stroke-width="0.49068" stroke-linecap="round"/>
<path id="Vector 6" d="M27.2184 39.5005C27.1904 39.4894 27.1648 39.4689 27.1391 39.453C27.1212 39.442 27.1019 39.4324 27.0841 39.4211C27.0623 39.4072 27.0386 39.3962 27.0165 39.3828C26.9978 39.3714 26.9802 39.3604 26.9624 39.3475C26.9473 39.3366 26.9313 39.3269 26.9158 39.3167C26.8971 39.3043 26.8785 39.292 26.8604 39.279C26.841 39.2651 26.8236 39.2489 26.8074 39.2315C26.7979 39.2214 26.788 39.2111 26.7818 39.1986C26.7792 39.1935 26.7762 39.1895 26.7729 39.1849C26.7704 39.1815 26.7697 39.1771 26.7673 39.1735" stroke="#25957F" stroke-width="0.49068" stroke-linecap="round"/>
<path id="Vector 7" d="M27.2256 39.466C27.2221 39.4509 27.2189 39.4362 27.2124 39.4221C27.2108 39.4185 27.2096 39.4154 27.2086 39.4116C27.2069 39.4055 27.2031 39.3979 27.1999 39.3925C27.1945 39.3836 27.1914 39.3734 27.1857 39.3647C27.1797 39.3556 27.175 39.3465 27.1708 39.3366C27.1678 39.3295 27.1627 39.3238 27.159 39.3172C27.1563 39.3122 27.155 39.3065 27.1523 39.3016C27.1464 39.291 27.1386 39.2803 27.1343 39.269C27.1296 39.2567 27.1214 39.2462 27.1153 39.2346C27.1087 39.2222 27.1011 39.2105 27.094 39.1983C27.0789 39.172 27.0647 39.1451 27.0496 39.1187C27.0385 39.0995 27.0289 39.0798 27.0167 39.0612C26.9928 39.0246 26.9697 38.988 26.943 38.9532C26.9369 38.9453 26.9292 38.9376 26.9213 38.9314C26.912 38.9241 26.9043 38.9147 26.8957 38.9068C26.8815 38.8937 26.8686 38.8793 26.855 38.8657C26.8198 38.8305 26.7856 38.7938 26.7533 38.7559C26.7244 38.7222 26.6955 38.6906 26.6745 38.6509C26.6685 38.6396 26.6616 38.6291 26.6564 38.6173C26.6515 38.6064 26.6457 38.5949 26.6396 38.5848C26.6234 38.5581 26.6101 38.5316 26.5979 38.503" stroke="#25957F" stroke-width="0.49068" stroke-linecap="round"/>
<path id="Vector 8" d="M26.5705 38.4433C26.5782 38.4557 26.5856 38.4679 26.5926 38.4803C26.5969 38.488 26.5997 38.4962 26.6045 38.5036C26.6102 38.5126 26.6141 38.5244 26.6207 38.5327C26.6261 38.5394 26.6282 38.5476 26.6323 38.5552C26.6391 38.5674 26.6443 38.5807 26.6514 38.5928C26.6569 38.6022 26.6603 38.6126 26.6655 38.6223C26.6719 38.6343 26.6787 38.6463 26.6827 38.6592" stroke="#25957F" stroke-width="0.49068" stroke-linecap="round"/>
<path id="Vector 9" d="M26.765 38.7988C26.7571 38.7849 26.7469 38.7719 26.7366 38.7597C26.7343 38.7569 26.7335 38.7563 26.7322 38.7532C26.7304 38.7488 26.7271 38.745 26.7244 38.741C26.7212 38.7362 26.718 38.7312 26.7149 38.7263C26.711 38.7203 26.7099 38.7128 26.7055 38.7071C26.7024 38.7031 26.7022 38.6984 26.6988 38.6944C26.6957 38.6906 26.6953 38.6867 26.6934 38.6825C26.6913 38.6777 26.6873 38.6737 26.6857 38.6686C26.6835 38.6618 26.6787 38.6572 26.6767 38.6503C26.6722 38.6354 26.663 38.6213 26.6567 38.607C26.6524 38.5973 26.6485 38.5875 26.6438 38.5781C26.6366 38.5637 26.6314 38.5483 26.6253 38.5334C26.6217 38.5245 26.6192 38.5151 26.6147 38.5066C26.6115 38.5006 26.6091 38.4952 26.6075 38.4886" stroke="#25957F" stroke-width="0.49068" stroke-linecap="round"/>
<path id="Vector 10" d="M26.6098 38.4634C26.6181 38.4782 26.624 38.4941 26.6312 38.5093C26.6349 38.517 26.637 38.5256 26.6411 38.533C26.6445 38.5393 26.6464 38.5455 26.6495 38.5519C26.6517 38.5562 26.6551 38.5616 26.6562 38.5661C26.6592 38.578 26.6664 38.5891 26.6692 38.601C26.6727 38.6163 26.6801 38.6301 26.686 38.6446C26.6918 38.6587 26.6999 38.6716 26.7047 38.686C26.708 38.696 26.7145 38.7057 26.7194 38.715C26.7235 38.7228 26.73 38.731 26.7327 38.7393C26.7384 38.7568 26.7477 38.7727 26.7561 38.7889C26.7707 38.817 26.784 38.8439 26.7935 38.8739" stroke="#25957F" stroke-width="0.49068" stroke-linecap="round"/>
<path id="Vector 11" d="M26.6277 38.5149C26.6406 38.5452 26.6543 38.5748 26.6683 38.6043C26.6778 38.6244 26.6889 38.6437 26.7024 38.6613C26.7274 38.6939 26.7413 38.7339 26.7647 38.7677C26.7769 38.7853 26.7885 38.8031 26.8014 38.8203C26.8131 38.8359 26.8265 38.8504 26.838 38.866C26.8502 38.8826 26.8627 38.8972 26.8783 38.9107C26.8847 38.9161 26.8907 38.924 26.8951 38.9311C26.9062 38.9489 26.9185 38.9657 26.9308 38.9827" stroke="#25957F" stroke-width="0.49068" stroke-linecap="round"/>
<path id="Vector 12" d="M26.9331 38.954C26.93 38.9435 26.9216 38.9355 26.9157 38.9265C26.9134 38.923 26.9119 38.9197 26.9093 38.9163C26.9036 38.9089 26.899 38.9009 26.8931 38.8936C26.8789 38.8765 26.8645 38.8595 26.8493 38.8433C26.8222 38.8142 26.7985 38.7818 26.7705 38.7532C26.7558 38.7382 26.7428 38.7212 26.7293 38.7051C26.7212 38.6954 26.7135 38.6856 26.7062 38.6753C26.7017 38.6689 26.6966 38.6635 26.6925 38.6568C26.6883 38.6497 26.6837 38.6425 26.6789 38.6359C26.6636 38.6143 26.6515 38.5897 26.6395 38.5661C26.6294 38.5462 26.6194 38.5266 26.6086 38.5071C26.6046 38.4998 26.6014 38.491 26.5954 38.485" stroke="#25957F" stroke-width="0.49068" stroke-linecap="round"/>
<path id="Vector 13" d="M26.9251 38.9939C26.8915 38.9604 26.8576 38.9274 26.8217 38.8964C26.8145 38.8902 26.8083 38.883 26.8023 38.8756C26.7891 38.859 26.773 38.8432 26.7628 38.8246C26.7504 38.8019 26.7383 38.7784 26.7247 38.7564C26.7178 38.7453 26.7155 38.7316 26.7088 38.72C26.7048 38.7131 26.6986 38.7063 26.6971 38.6984C26.6945 38.6841 26.6813 38.6696 26.676 38.6559C26.6684 38.6365 26.6544 38.6205 26.6473 38.6008C26.6333 38.5623 26.6076 38.5274 26.5944 38.4878" stroke="#25957F" stroke-width="0.49068" stroke-linecap="round"/>
<path id="Vector 14" d="M26.8399 38.8739C26.8323 38.8713 26.8194 38.8535 26.8137 38.8477C26.805 38.8389 26.7926 38.8278 26.7858 38.8173C26.7779 38.8051 26.7647 38.7954 26.7577 38.7825C26.7449 38.7587 26.7303 38.7353 26.716 38.713C26.6962 38.6822 26.6755 38.6512 26.6595 38.6183C26.6513 38.6015 26.639 38.5873 26.6305 38.5707C26.6211 38.5524 26.6131 38.5335 26.6057 38.5142C26.5992 38.497 26.5957 38.4795 26.5906 38.462C26.5864 38.4477 26.578 38.433 26.5769 38.4181C26.5756 38.3992 26.5739 38.3799 26.5704 38.3612C26.5662 38.3391 26.5586 38.3148 26.5569 38.2926C26.5518 38.2263 26.5265 38.1645 26.5128 38.0995C26.5082 38.078 26.4996 38.058 26.4966 38.0361C26.4939 38.0159 26.4889 37.9941 26.4838 37.9744C26.4719 37.9287 26.4648 37.8819 26.4515 37.8366" stroke="#25957F" stroke-width="0.98136" stroke-linecap="round"/>
<path id="Vector 15" d="M26.5343 38.1773C26.5397 38.2002 26.5453 38.2226 26.5529 38.2449C26.556 38.2539 26.556 38.2636 26.5596 38.2723C26.5664 38.2888 26.574 38.3049 26.5781 38.3223C26.5821 38.339 26.5914 38.3548 26.5964 38.3716C26.6003 38.3849 26.6038 38.4003 26.6094 38.4128C26.6182 38.4322 26.6169 38.4524 26.6268 38.4717C26.6314 38.4806 26.6316 38.4897 26.6334 38.4994C26.636 38.5142 26.6421 38.5283 26.6469 38.5425C26.6617 38.587 26.6811 38.6337 26.7033 38.675C26.7245 38.7147 26.7441 38.7552 26.7626 38.7961C26.7817 38.8386 26.8106 38.8746 26.8338 38.9144C26.8604 38.9601 26.8794 39.0117 26.909 39.0554C26.9388 39.0994 26.9497 39.1542 26.9702 39.202" stroke="#25957F" stroke-width="0.98136" stroke-linecap="round"/>
<path id="Vector 16" d="M27.2082 39.4724C27.2058 39.4891 27.208 39.495 27.1919 39.495C27.175 39.495 27.167 39.4904 27.1519 39.4815C27.1128 39.4584 27.0728 39.4404 27.0378 39.4106C27.0178 39.3936 26.9952 39.3699 26.9803 39.3483C26.9664 39.3281 26.9481 39.3087 26.9366 39.287C26.9249 39.265 26.9061 39.2426 26.8905 39.223C26.8677 39.1942 26.8455 39.166 26.8209 39.1384C26.7959 39.1102 26.7711 39.0829 26.7498 39.0515C26.7331 39.0269 26.7083 39.0007 26.6972 38.973C26.6951 38.9676 26.6994 38.9908 26.7007 38.9939C26.71 39.0173 26.7219 39.0401 26.733 39.0627C26.7502 39.0979 26.7674 39.1371 26.7917 39.1682C26.8031 39.1827 26.811 39.2017 26.82 39.218C26.8251 39.2274 26.8315 39.2363 26.8361 39.246C26.8402 39.2545 26.8429 39.2684 26.851 39.2742C26.8562 39.278 26.8561 39.2821 26.8585 39.2876C26.8626 39.2968 26.8717 39.3022 26.8775 39.3101C26.8916 39.3296 26.9148 39.3505 26.934 39.365C26.953 39.3794 26.9722 39.3932 26.9899 39.4097C27.0032 39.422 27.0153 39.4346 27.0303 39.4449C27.0479 39.457 27.0641 39.4649 27.0835 39.4724C27.096 39.4774 27.1095 39.4868 27.123 39.4875C27.1415 39.4884 27.1599 39.4925 27.1792 39.4925C27.1856 39.4925 27.1971 39.4906 27.2026 39.4875C27.2069 39.485 27.2141 39.4861 27.2171 39.4819C27.2205 39.4772 27.2207 39.4761 27.2257 39.473C27.2385 39.4652 27.2338 39.4379 27.2303 39.4275C27.2189 39.3932 27.1935 39.3679 27.1791 39.3358C27.1546 39.2811 27.1075 39.2376 27.0773 39.1863C27.0602 39.1571 27.0378 39.131 27.0189 39.103C27.0031 39.0796 26.9872 39.0557 26.9711 39.0326C26.9547 39.0091 26.9392 38.9849 26.9226 38.9616C26.9024 38.9335 26.8801 38.9043 26.863 38.8742C26.8387 38.8315 26.8081 38.7924 26.7797 38.7524C26.7664 38.7336 26.7498 38.7169 26.7366 38.6982C26.7289 38.6874 26.7204 38.6771 26.7146 38.6651C26.7085 38.6525 26.6985 38.6427 26.6926 38.63C26.6812 38.6057 26.6679 38.5799 26.6545 38.5567C26.64 38.5317 26.6319 38.5031 26.6206 38.4765C26.608 38.4465 26.6012 38.4151 26.5907 38.3845C26.5763 38.3424 26.5622 38.3001 26.5498 38.2573C26.5255 38.1735 26.5096 38.0879 26.4979 38.0016C26.4934 37.9688 26.4896 37.9349 26.4816 37.9029C26.4784 37.89 26.4766 37.8772 26.4766 37.8639C26.4766 37.8582 26.4766 37.8625 26.4766 37.8664C26.4766 37.8791 26.4764 37.8919 26.4766 37.9046C26.4771 37.9443 26.4887 37.9864 26.4993 38.0248C26.5104 38.0651 26.5202 38.1056 26.5317 38.1458C26.541 38.1785 26.5445 38.2119 26.5531 38.2448C26.5582 38.2641 26.5605 38.2831 26.5662 38.3024C26.5719 38.3214 26.5739 38.3418 26.5768 38.3614C26.5819 38.3958 26.5902 38.4302 26.5998 38.4636C26.6182 38.528 26.6427 38.5948 26.6735 38.6544C26.6988 38.7032 26.7311 38.7487 26.7566 38.7971C26.7609 38.8052 26.7736 38.8197 26.7747 38.8285C26.7759 38.8375 26.7703 38.8109 26.7667 38.8026C26.7433 38.7486 26.7142 38.6976 26.6908 38.6437C26.6788 38.616 26.6642 38.5907 26.6554 38.5618C26.6519 38.5502 26.6461 38.5389 26.6419 38.5273C26.6378 38.5158 26.6377 38.5033 26.6333 38.4917C26.6211 38.4593 26.6142 38.4252 26.6024 38.3926C26.5852 38.3449 26.5708 38.295 26.5593 38.246C26.5502 38.2074 26.5462 38.1677 26.5342 38.1295C26.5291 38.1134 26.5203 38.1004 26.5167 38.0834C26.5113 38.0585 26.4982 38.0351 26.4968 38.0092C26.4942 37.9625 26.4829 37.9143 26.4716 37.8689" stroke="#25957F" stroke-width="0.98136" stroke-linecap="round"/>
<path id="Vector 17" d="M26.8675 39.3147C26.8403 39.2938 26.8126 39.2586 26.7943 39.2289C26.7839 39.2121 26.7704 39.1979 26.7595 39.1816C26.7355 39.1455 26.7148 39.1078 26.6949 39.0691C26.6806 39.0413 26.6687 39.0143 26.6571 38.9851C26.651 38.9697 26.643 38.9546 26.6384 38.9387C26.6342 38.9243 26.631 38.9103 26.6239 38.8968C26.6152 38.8801 26.6085 38.8626 26.6019 38.8449C26.5954 38.8274 26.5858 38.8113 26.5794 38.7938C26.5723 38.7743 26.5568 38.7548 26.5568 38.7334" stroke="#25957F" stroke-width="0.98136" stroke-linecap="round"/>
<path id="Vector 18" d="M26.9627 39.4023C26.8871 39.349 26.8243 39.2892 26.7737 39.2119C26.7595 39.1903 26.7447 39.1682 26.7347 39.1444C26.7238 39.1187 26.7078 39.0951 26.6984 39.0691C26.6834 39.0276 26.6591 38.9898 26.64 38.9502C26.6221 38.9131 26.6033 38.8767 26.5881 38.8379C26.5864 38.8334 26.583 38.8236 26.5799 38.8205C26.5792 38.8198 26.5823 38.8345 26.5832 38.8373C26.5879 38.8521 26.5955 38.866 26.6025 38.8798C26.6439 38.9618 26.6864 39.0412 26.7347 39.1198C26.7398 39.1281 26.7488 39.1362 26.7517 39.1456C26.7521 39.147 26.7363 39.1322 26.7334 39.1291C26.7172 39.1113 26.7045 39.0918 26.6959 39.0692C26.6839 39.038 26.6672 39.0081 26.6545 38.9769C26.652 38.9708 26.6204 38.8948 26.6183 38.8957C26.6117 38.8985 26.6191 38.9384 26.62 38.9433C26.6234 38.961 26.6346 38.9817 26.6425 38.9978C26.6651 39.0438 26.6888 39.0918 26.7194 39.1323C26.7446 39.1656 26.7718 39.1972 26.795 39.2319C26.8068 39.2498 26.8249 39.2676 26.8396 39.2832C26.8489 39.293 26.8575 39.3121 26.8725 39.3121" stroke="#25957F" stroke-width="0.98136" stroke-linecap="round"/>
<path id="Vector 19" d="M32.0881 26.6648C32.0845 26.6906 32.0763 26.7156 32.0763 26.7418C32.0763 26.7585 32.0726 26.7754 32.0709 26.792C32.0687 26.8137 32.0638 26.8311 32.0559 26.8511C32.049 26.8686 32.0375 26.883 32.0289 26.8996C32.0179 26.9209 32.0074 26.9443 31.9942 26.9642" stroke="#25957F" stroke-width="0.98136" stroke-linecap="round"/>
<path id="Vector 20" d="M32.1155 26.6942C32.1126 26.7245 32.0988 26.7512 32.09 26.7798C32.0871 26.7893 32.0825 26.7986 32.0822 26.8085C32.0819 26.8182 32.0731 26.8281 32.0695 26.837C32.0665 26.8442 32.0647 26.8515 32.0616 26.8587C32.0584 26.8659 32.053 26.8739 32.0513 26.8816C32.0479 26.8981 32.0394 26.9123 32.0353 26.9289C32.0318 26.9428 32.0238 26.9575 32.0174 26.9703C32.0101 26.9849 32.0015 27.0002 31.9903 27.012C31.9824 27.0203 31.9783 27.0316 31.9707 27.0396C31.9581 27.0529 31.9484 27.0684 31.9364 27.0825C31.9134 27.1096 31.8944 27.1377 31.8631 27.156" stroke="#25957F" stroke-width="0.98136" stroke-linecap="round"/>
<path id="Vector 21" d="M33.178 24.7325C33.1457 24.7016 33.1144 24.6712 33.088 24.636C33.0757 24.6196 33.0638 24.6023 33.0479 24.5893C33.0368 24.5803 33.0308 24.5638 33.0215 24.5528C33.0116 24.5409 33.0028 24.5283 32.9918 24.5173C32.9716 24.4971 32.9538 24.4746 32.9328 24.4553C32.9314 24.4541 32.9181 24.4407 32.921 24.4473C32.9374 24.4842 32.9654 24.52 32.9886 24.5524C33.0286 24.6086 33.0696 24.6648 33.1124 24.7189C33.1272 24.7375 33.1406 24.7541 33.1509 24.7754C33.1686 24.812 33.1997 24.8423 33.2212 24.8766C33.2265 24.8851 33.2322 24.8934 33.2376 24.9018C33.2476 24.9174 33.2343 24.8974 33.2304 24.8927C33.1908 24.8443 33.1475 24.7988 33.1124 24.7471C33.0966 24.7238 33.0787 24.6994 33.0604 24.6779C33.0505 24.6662 33.0444 24.6602 33.0383 24.6464C33.0357 24.6404 33.027 24.6366 33.0233 24.6298C33.0001 24.5875 32.9632 24.5525 32.9303 24.5182C32.8902 24.4764 32.8502 24.4335 32.8091 24.3924" stroke="#25957F" stroke-width="0.98136" stroke-linecap="round"/>
<path id="Vector 22" d="M29.8301 23.4482C29.8038 23.4313 29.7805 23.4117 29.7547 23.3943C29.7388 23.3836 29.7224 23.3712 29.7057 23.3621C29.6985 23.3582 29.6921 23.3512 29.6862 23.3456C29.6761 23.336 29.6659 23.3263 29.6553 23.3171C29.646 23.309 29.6387 23.2983 29.6297 23.2897C29.6227 23.2832 29.622 23.2803 29.6168 23.2715C29.6163 23.2706 29.6112 23.2661 29.6112 23.2654C29.6112 23.2648 29.6195 23.2706 29.6199 23.271C29.63 23.281 29.6381 23.293 29.6492 23.3019C29.6561 23.3074 29.6618 23.3153 29.6681 23.3215C29.6786 23.3317 29.6908 23.3403 29.7005 23.3513C29.7123 23.3645 29.728 23.3757 29.7416 23.3871C29.7601 23.4026 29.776 23.4212 29.7949 23.436C29.8278 23.4618 29.8574 23.4931 29.8868 23.5226" stroke="#25957F" stroke-width="0.98136" stroke-linecap="round"/>
<path id="Vector 23" d="M35.6921 23.867C35.6656 23.8509 35.6348 23.8374 35.6105 23.8183C35.5993 23.8095 35.5897 23.8043 35.5769 23.7994C35.5703 23.7968 35.5603 23.7876 35.5566 23.7817C35.5541 23.7777 35.5478 23.7739 35.5445 23.7698C35.5369 23.7603 35.5293 23.7493 35.5208 23.7408C35.5078 23.7278 35.4944 23.7081 35.4886 23.6909" stroke="#25957F" stroke-width="0.98136" stroke-linecap="round"/>
<path id="Vector 24" d="M35.6727 23.8983C35.6444 23.8764 35.6195 23.8504 35.5914 23.8283C35.5839 23.8225 35.5758 23.8169 35.569 23.8103C35.5497 23.7915 35.525 23.7791 35.5055 23.7603C35.4924 23.7477 35.4803 23.735 35.4677 23.7218C35.4624 23.7163 35.4546 23.7085 35.4511 23.7018C35.4475 23.6949 35.441 23.6893 35.4379 23.6831" stroke="#25957F" stroke-width="0.98136" stroke-linecap="round"/>
<path id="Vector 25" d="M43.5619 17.7152C43.5475 17.7182 43.5303 17.7234 43.5247 17.7387C43.5199 17.7517 43.5134 17.7611 43.5106 17.7754C43.5059 17.7993 43.497 17.8212 43.4933 17.8455C43.4921 17.8532 43.4867 17.8596 43.4851 17.8674C43.484 17.8731 43.482 17.8786 43.4807 17.8843C43.4783 17.8944 43.4752 17.9083 43.4708 17.9176C43.4627 17.935 43.4641 17.9512 43.4641 17.9704C43.4641 17.9911 43.4652 18.0083 43.4719 18.0283" stroke="#25957F" stroke-width="0.98136" stroke-linecap="round"/>
<path id="Vector 26" d="M30.172 23.5376C30.1244 23.5347 30.08 23.5321 30.0348 23.5181C30.0162 23.5123 29.9962 23.5072 29.9772 23.5025C29.9358 23.4924 29.9041 23.4711 29.868 23.448C29.8402 23.4301 29.8024 23.4151 29.7806 23.3898C29.7523 23.3567 29.7119 23.333 29.681 23.3021" stroke="#25957F" stroke-width="0.98136" stroke-linecap="round"/>
<path id="Vector 27" d="M30.543 23.6577C30.5149 23.6423 30.4773 23.6394 30.4461 23.6376C30.4143 23.6356 30.3844 23.6202 30.3526 23.6202C30.3364 23.6202 30.3218 23.6127 30.3062 23.6103C30.2764 23.6057 30.2442 23.5983 30.215 23.5901C30.1895 23.5829 30.1628 23.5793 30.1377 23.5706C30.1136 23.5623 30.0891 23.5575 30.065 23.5494C30.0509 23.5447 30.0362 23.5403 30.0218 23.5364C30.0132 23.534 30.0043 23.5323 29.9957 23.53C29.9851 23.5271 29.976 23.5203 29.9653 23.518C29.9396 23.5125 29.9101 23.5041 29.8866 23.4924" stroke="#25957F" stroke-width="0.98136" stroke-linecap="round"/>
<path id="Vector 28" d="M29.5007 23.212C29.5288 23.2471 29.5554 23.2827 29.5893 23.3122C29.6076 23.3283 29.6246 23.3457 29.6422 23.3623C29.6613 23.3804 29.6852 23.3954 29.7079 23.4086C29.735 23.4244 29.7611 23.4409 29.7875 23.4576C29.8126 23.4734 29.8373 23.49 29.8632 23.5046C29.8888 23.519 29.9156 23.5308 29.9412 23.5447C29.9614 23.5557 29.9847 23.5656 30.0069 23.5728C30.0363 23.5824 30.0653 23.5955 30.0958 23.6016C30.1103 23.6045 30.1231 23.6128 30.1373 23.6153C30.1483 23.6172 30.16 23.6171 30.1703 23.6218C30.1988 23.6349 30.2325 23.6346 30.2624 23.643C30.3293 23.6617 30.3993 23.6579 30.4676 23.6693C30.5407 23.6814 30.6137 23.6856 30.6878 23.6856C30.8231 23.6856 30.9588 23.683 31.0942 23.683" stroke="#25957F" stroke-width="0.98136" stroke-linecap="round"/>
<path id="Vector 29" d="M33.1701 24.8493C33.1425 24.8221 33.1163 24.7935 33.092 24.764C33.0607 24.726 33.0315 24.6849 32.9968 24.6497C32.9861 24.6388 32.9781 24.6256 32.9674 24.6146C32.9561 24.6029 32.9433 24.5922 32.9325 24.58C32.9075 24.5517 32.8789 24.5259 32.8541 24.4971C32.8433 24.4846 32.8302 24.4746 32.8198 24.4618C32.8066 24.4454 32.7954 24.4273 32.7826 24.4105C32.7452 24.3615 32.705 24.3148 32.6672 24.2662" stroke="#25957F" stroke-width="0.98136" stroke-linecap="round"/>
<path id="Vector 30" d="M22.7193 24.9347C22.6491 24.9236 22.5731 24.9058 22.5012 24.9058" stroke="#25957F" stroke-width="0.98136" stroke-linecap="round"/>
</g>
<defs>
<clipPath id="clip0_519_5749">
<rect width="59.4467" height="58.1719" fill="white" transform="translate(0.112282 0.978161)"/>
</clipPath>
</defs>
</svg>
